<?xml version="1.0" encoding="UTF-8"?>
<svg xmlns="http://www.w3.org/2000/svg" xmlns:xlink="http://www.w3.org/1999/xlink" viewBox="0 0 100 100" width="100px" height="100px">
<g id="surface88121028">
<path style=" stroke:none;fill-rule:nonzero;fill:rgb(37.254903%,84.705883%,33.333334%);fill-opacity:1;" d="M 83.875 17.25 C 82.546875 17.296875 81.328125 18 80.625 19.125 L 43 76.6875 L 18.625 55.625 C 17.578125 54.539062 16.007812 54.132812 14.5625 54.585938 C 13.125 55.03125 12.054688 56.25 11.804688 57.734375 C 11.554688 59.226562 12.15625 60.726562 13.375 61.625 L 41.25 85.75 C 42.125 86.492188 43.28125 86.820312 44.414062 86.65625 C 45.554688 86.484375 46.5625 85.835938 47.1875 84.875 L 87.375 23.5 C 88.234375 22.242188 88.304688 20.617188 87.5625 19.289062 C 86.820312 17.96875 85.390625 17.179688 83.875 17.25 Z M 83.875 17.25 "/>
</g>
</svg>
