<svg width="38" height="43" viewBox="0 0 38 43" fill="none" xmlns="http://www.w3.org/2000/svg">
<path d="M14.584 4.07121H22.9142C24.0596 4.07121 24.9967 3.15519 24.9967 2.03561C24.9967 0.916022 24.0596 0 22.9142 0H14.584C13.4386 0 12.5015 0.916022 12.5015 2.03561C12.5015 3.15519 13.4386 4.07121 14.584 4.07121ZM33.3893 13.0075L34.9512 11.4808C35.7426 10.7073 35.7634 9.42485 34.9512 8.63097L34.9304 8.61061C34.1182 7.81672 32.827 7.83708 32.0148 8.61061L30.4529 10.1373C27.225 7.61316 23.1641 6.10682 18.7491 6.10682C8.75294 6.10682 0.256214 14.1678 0.00630979 23.9387C-0.264419 34.2796 8.21148 42.7477 18.7491 42.7477C29.1201 42.7477 37.4919 34.5442 37.4919 24.4273C37.4919 20.1118 35.9508 16.1423 33.3893 13.0075ZM18.7491 38.6765C10.6897 38.6765 4.17137 32.3051 4.17137 24.4273C4.17137 16.5495 10.6897 10.178 18.7491 10.178C26.8085 10.178 33.3268 16.5495 33.3268 24.4273C33.3268 32.3051 26.8085 38.6765 18.7491 38.6765ZM16.2709 28.4985H8.56552C7.77415 28.4985 7.27435 29.3127 7.62838 30.0048C8.79459 32.2847 10.6272 34.0964 12.9805 35.2363C13.4595 35.4602 14.0634 35.277 14.3341 34.8088L17.1872 30.0252C17.5829 29.3534 17.0831 28.4985 16.2709 28.4985ZM24.4344 13.5368C23.9554 13.2925 23.3515 13.4961 23.0808 13.9439L20.2069 18.809C19.7904 19.5011 20.2902 20.3561 21.1024 20.3561H28.9327C29.724 20.3561 30.2238 19.5418 29.8698 18.8701C28.6619 16.5698 26.7668 14.7174 24.4344 13.5368ZM22.6643 27.8878C22.2686 27.1957 21.2481 27.1753 20.8525 27.8674L16.6041 35.0328C16.2292 35.6842 16.6457 36.4984 17.4163 36.5595C20.2069 36.8445 23.0183 36.1931 25.3924 34.7478C25.8505 34.4628 25.9755 33.8725 25.7256 33.4043L22.6643 27.8878ZM15.2296 24.8955L10.2732 17.4451C9.85668 16.8345 8.94037 16.8345 8.52387 17.4451C6.83701 19.8064 6.0873 22.6766 6.33721 25.5468C6.37886 26.0761 6.83701 26.4629 7.37847 26.4629H14.355C15.1671 26.4629 15.6669 25.5672 15.2296 24.8955ZM22.8517 23.898L27.0584 31.5112C27.4333 32.1829 28.3912 32.2236 28.8494 31.613C30.6404 29.2109 31.4317 26.2797 31.1818 23.3077C31.1402 22.7784 30.6612 22.3917 30.1405 22.3917H23.7888C22.9766 22.3917 22.4768 23.2059 22.8517 23.898ZM14.9381 20.7021C15.3546 21.3331 16.3125 21.3128 16.7082 20.6614L20.7483 13.8421C21.144 13.1907 20.6859 12.3765 19.9153 12.2951C17.0831 12.0508 14.23 12.7225 11.8351 14.2696C11.3769 14.5749 11.2728 15.206 11.5644 15.6538L14.9381 20.7021Z" fill="black"/>
</svg>
