<svg width="40" height="39" viewBox="0 0 40 39" fill="none" xmlns="http://www.w3.org/2000/svg">
<path d="M20 0.678223C8.96 0.678223 0 9.25965 0 19.8332C0 30.4067 8.96 38.9882 20 38.9882C31.04 38.9882 40 30.4067 40 19.8332C40 9.25965 31.04 0.678223 20 0.678223ZM20 35.1572C11.18 35.1572 4 28.2805 4 19.8332C4 11.3858 11.18 4.50922 20 4.50922C28.82 4.50922 36 11.3858 36 19.8332C36 28.2805 28.82 35.1572 20 35.1572ZM29.18 11.3667L16 23.9898L10.82 19.0478L8 21.7487L16 29.4107L32 14.0867L29.18 11.3667Z" fill="black"/>
</svg>
